HIERARCHY
ROOT Hips
{
  OFFSET 0 0 0
  CHANNELS 6 Xposition Yposition Zposition Zrotation Yrotation Xrotation
  JOINT LeftThigh
  {
    OFFSET 8.509551 0 -5.988202
    CHANNELS 3 Zrotation Yrotation Xrotation
    JOINT LeftLeg
    {
      OFFSET 0 0 -42.862921
      CHANNELS 3 Zrotation Yrotation Xrotation
      JOINT LeftFoot
      {
        OFFSET 0 0 -39.825843
        CHANNELS 3 Zrotation Yrotation Xrotation
        End Site
        {
          OFFSET 0 -13.487303 -5.068483
        }
      }
    }
  }
  JOINT RightThigh
  {
    OFFSET -8.509551 0 -5.988202
    CHANNELS 3 Zrotation Yrotation Xrotation
    JOINT RightLeg
    {
      OFFSET 0 0 -42.862921
      CHANNELS 3 Zrotation Yrotation Xrotation
      JOINT RightFoot
      {
        OFFSET 0 0 -39.825843
        CHANNELS 3 Zrotation Yrotation Xrotation
        End Site
        {
          OFFSET 0 -13.487303 -5.068483
        }
      }
    }
  }
  JOINT SpineLow
  {
    OFFSET 0 0 4.775281
    CHANNELS 3 Zrotation Yrotation Xrotation
    JOINT SpineMid
    {
      OFFSET 0 0 13.052753
      CHANNELS 3 Zrotation Yrotation Xrotation
      JOINT Chest
      {
        OFFSET 0 0 13.052753
        CHANNELS 3 Zrotation Yrotation Xrotation
        JOINT LeftShoulder
        {
          OFFSET 7.640449 1.432584 9.550562
          CHANNELS 3 Zrotation Yrotation Xrotation
          JOINT LeftArm
          {
            OFFSET 9.264045 0 4.297753
            CHANNELS 3 Zrotation Yrotation Xrotation
            JOINT LeftForearm
            {
              OFFSET 0 0 26.078764
              CHANNELS 3 Zrotation Yrotation Xrotation
              JOINT LeftHand
              {
                OFFSET 0 0 25.497135
                CHANNELS 3 Zrotation Yrotation Xrotation
              }
            }
          }
        }
        JOINT RightShoulder
        {
          OFFSET -7.640449 1.432584 9.550562
          CHANNELS 3 Zrotation Yrotation Xrotation
          JOINT RightArm
          {
            OFFSET -9.264045 0 4.297753
            CHANNELS 3 Zrotation Yrotation Xrotation
            JOINT RightForearm
            {
              OFFSET 0 0 -26.078764
              CHANNELS 3 Zrotation Yrotation Xrotation
              JOINT RightHand
              {
                OFFSET 0 0 -25.497135
                CHANNELS 3 Zrotation Yrotation Xrotation
              }
            }
          }
        }
        JOINT Neck
        {
          OFFSET 0 0 15.280899
          CHANNELS 3 Zrotation Yrotation Xrotation
          JOINT Head
          {
            OFFSET 0 0 11.460674
            CHANNELS 3 Zrotation Yrotation Xrotation
            End Site
            {
              OFFSET 0 0 7.325843
            }
          }
        }
      }
    }
  }
}
MOTION
Frames: 17
Frame Time: 0.01
7.221594  93.148651  -2.960915  13.290558  83.755284  -81.519161  12.739506  -13.601641  11.616118  0.551442  -1.484706  -8.498313  5.109247  3.93679  3.633853  -5.170951  15.57399  7.7017  1.21243  2.400405  -0.059087  7.338923  -9.983019  -0.38184  0.300774  0.03635  0.816298  0.823256  0.089194  2.231682  0.823256  0.089194  2.231682  -6.050532  9.769846  13.139424  134.835816  34.061352  170.377052  -19.11527  11.744911  18.218667  87.692087  -25.625928  -22.749746  7.751501  -10.508908  9.720448  46.523504  42.410972  -4.622109  -25.509068  20.965246  -40.754624  114.862028  -14.829105  17.849114  -1.917723  0.0826  -1.062775  -1.438153  0.065286  -0.796832  
7.24252  93.13649  -2.957172  13.558381  83.726262  -81.2688  12.802897  -13.57019  11.633497  0.488283  -1.494203  -8.519493  5.136972  3.939179  3.634857  -5.318042  15.626586  7.742278  1.285572  2.412036  -0.178026  7.408617  -9.950081  -0.404588  0.303989  0.046141  0.826933  0.832392  0.115709  2.260879  0.832392  0.115709  2.260879  -6.103724  9.709364  13.070229  134.811402  34.072935  170.357485  -19.070952  11.773299  18.2643  87.690505  -25.637579  -22.757017  7.722929  -10.52982  9.629393  46.492509  42.423039  -4.64402  -25.600193  20.897753  -40.731141  114.924344  -14.773421  18.022943  -1.933822  0.032118  -1.082685  -1.450315  0.027515  -0.811922  
7.250874  93.11676  -2.985116  13.761532  83.682694  -81.051169  12.897173  -13.548406  11.611205  0.515281  -1.502626  -8.509679  5.13726  3.965743  3.640519  -5.4602  15.701747  7.7125  1.392314  2.400961  -0.253086  7.456719  -9.907457  -0.442978  0.315438  0.05584  0.831436  0.864023  0.141767  2.273334  0.864023  0.141767  2.273334  -6.192823  9.657168  13.003493  134.856383  34.073815  170.391614  -18.965751  11.765881  18.28867  87.681947  -25.587843  -22.925585  7.62218  -10.5364  9.545156  46.551909  42.403526  -4.635715  -25.739426  20.8529  -40.706584  114.994111  -14.715091  18.186298  -1.939398  0.015221  -1.097652  -1.454527  0.014899  -0.823201  
7.265587  93.105453  -2.971871  13.969583  83.655936  -80.855767  12.917578  -13.519887  11.635355  0.481552  -1.509762  -8.538332  5.179509  3.97094  3.650936  -5.548157  15.72115  7.760228  1.381491  2.431582  -0.367006  7.548558  -9.855379  -0.471629  0.327362  0.069585  0.835644  0.897095  0.178864  2.285048  0.897095  0.178864  2.285048  -6.288441  9.574997  12.980231  134.815507  34.101518  170.373111  -18.920109  11.792604  18.316343  87.686697  -25.600282  -22.910265  7.539741  -10.593761  9.485674  46.478633  42.399764  -4.681543  -25.802033  20.802476  -40.680372  115.074162  -14.652221  18.337157  -1.994143  -0.058954  -1.087454  -1.495717  -0.040668  -0.815793  
7.254955  93.086433  -2.997259  14.218934  83.626741  -80.603541  12.956322  -13.499449  11.639196  0.515374  -1.511635  -8.537641  5.210869  3.998453  3.661546  -5.61904  15.78202  7.74571  1.390493  2.431027  -0.425202  7.628871  -9.806077  -0.516854  0.333515  0.077067  0.836117  0.914171  0.199094  2.28646  0.914171  0.199094  2.286461  -6.354887  9.553042  12.95574  134.850705  34.111152  170.413032  -18.819895  11.779013  18.322178  87.621457  -25.48743  -23.256184  7.448578  -10.570002  9.433886  46.487046  42.339769  -4.694613  -25.889671  20.778684  -40.685211  115.173177  -14.605497  18.473057  -1.951326  -0.074708  -1.072736  -1.463631  -0.052607  -0.8048  
7.260651  93.073685  -2.983473  14.32362  83.599279  -80.537583  12.91519  -13.475644  11.706303  0.512912  -1.523659  -8.572732  5.278943  4.010326  3.673068  -5.636356  15.783062  7.826962  1.290483  2.460706  -0.525319  7.753795  -9.74788  -0.552427  0.337803  0.084176  0.838558  0.926144  0.218339  2.293245  0.926144  0.218339  2.293245  -6.406354  9.516801  12.963615  134.795328  34.144254  170.382028  -18.797307  11.806969  18.333562  87.630551  -25.516961  -23.302969  7.413088  -10.582156  9.420079  46.34884  42.310639  -4.789666  -25.900231  20.757901  -40.683973  115.293473  -14.57641  18.587705  -1.97784  -0.120588  -1.032269  -1.483588  -0.087101  -0.774601  
7.243283  93.052971  -3.00769  14.327653  83.551696  -80.566036  12.917441  -13.479762  11.75773  0.590781  -1.525432  -8.573213  5.317146  4.043244  3.680197  -5.621885  15.805585  7.865918  1.211029  2.465709  -0.589304  7.842721  -9.685707  -0.589937  0.343947  0.08649  0.840608  0.943023  0.22442  2.298902  0.943023  0.22442  2.298902  -6.441347  9.504964  12.96126  134.790422  34.156437  170.409655  -18.733022  11.795836  18.323023  87.549058  -25.417904  -23.685625  7.344277  -10.542462  9.412357  46.291104  42.254247  -4.839912  -25.962677  20.743573  -40.732798  115.41539  -14.542073  18.702113  -1.930595  -0.112139  -0.993452  -1.448132  -0.080967  -0.745451  
7.247833  93.039749  -2.995294  14.417531  83.5291  -80.529422  12.827425  -13.453798  11.851051  0.621273  -1.540854  -8.61456  5.391924  4.059507  3.698776  -5.592087  15.798628  7.973524  1.059478  2.498445  -0.685238  7.97524  -9.629275  -0.626402  0.34609  0.092676  0.8454  0.949113  0.241183  2.312099  0.949113  0.241183  2.312099  -6.478772  9.473519  12.977394  134.724353  34.199994  170.376094  -18.725157  11.823971  18.331122  87.517461  -25.439062  -23.739979  7.33012  -10.546221  9.415268  46.136207  42.223396  -4.943379  -25.99718  20.746782  -40.770932  115.536424  -14.495593  18.801336  -1.952475  -0.142186  -0.948905  -1.464581  -0.103609  -0.712141  
7.240269  93.01429  -3.038556  14.31154  83.462933  -80.664593  12.790134  -13.432153  11.911531  0.746612  -1.564615  -8.619831  5.447237  4.102207  3.713231  -5.548325  15.825633  8.016434  0.975664  2.503614  -0.754744  8.0724  -9.579128  -0.657419  0.352696  0.091953  0.847781  0.96715  0.23894  2.31862  0.96715  0.23894  2.31862  -6.48651  9.472373  12.983839  134.720267  34.211397  170.41474  -19.002007  11.965618  19.266363  87.843098  -24.35934  -24.096377  7.29863  -10.497743  9.419917  46.09327  42.177925  -4.966071  -26.102962  20.753196  -40.853907  115.659145  -14.446672  18.875739  -1.907868  -0.112192  -0.912561  -1.431072  -0.081297  -0.684779  
7.235939  93.003601  -3.029188  14.489575  83.45375  -80.525814  12.659563  -13.378608  11.984298  0.811441  -1.584212  -8.640733  5.527558  4.119252  3.723808  -5.515785  15.82247  8.108336  0.840166  2.538406  -0.850723  8.171269  -9.521538  -0.680309  0.350007  0.096574  0.851983  0.959978  0.251603  2.330163  0.959978  0.251603  2.330163  -6.505034  9.457995  12.998228  134.664724  34.257739  170.394163  -19.020667  11.989969  19.261972  87.819116  -24.366876  -24.108866  7.306598  -10.491494  9.428374  46.00792  42.159753  -5.021812  -26.189818  20.779994  -40.903564  115.787062  -14.403336  18.931089  -1.923478  -0.127499  -0.882799  -1.442796  -0.092847  -0.662507  
7.225923  92.983604  -3.065304  14.538096  83.417699  -80.492527  12.541038  -13.330942  12.036176  0.995027  -1.601742  -8.636145  5.58333  4.156288  3.736647  -5.483113  15.852942  8.146471  0.751261  2.545059  -0.928131  8.253182  -9.473641  -0.695786  0.352145  0.09556  0.861013  0.96582  0.248625  2.354837  0.96582  0.248625  2.354837  -6.52958  9.466419  12.956122  134.71465  34.274305  170.456029  -19.202804  12.137568  20.119447  88.093348  -23.348403  -24.432753  7.297271  -10.434414  9.384969  45.996972  42.137415  -5.015873  -26.324993  20.791237  -40.984352  115.918873  -14.372307  18.982739  -1.886212  -0.089125  -0.889457  -1.414792  -0.0641  -0.667376  
7.218297  92.97522  -3.048766  14.73272  83.413335  -80.332757  12.410509  -13.273042  12.089242  1.056351  -1.629436  -8.63823  5.663061  4.18502  3.745219  -5.454717  15.847787  8.236472  0.650909  2.575628  -1.029819  8.320163  -9.408709  -0.712132  0.349175  0.099929  0.874087  0.957907  0.26048  2.390625  0.957907  0.26048  2.390625  -6.555383  9.448261  12.910358  134.694861  34.321103  170.466733  -19.217143  12.162168  20.098811  88.07905  -23.334136  -24.384539  7.317858  -10.425262  9.332227  45.935238  42.135519  -5.050703  -26.42705  20.813741  -41.031331  116.041277  -14.346631  19.040427  -1.902619  -0.10316  -0.904646  -1.42712  -0.074555  -0.678813  
7.220657  92.954147  -3.077724  14.75607  83.372996  -80.318376  12.311959  -13.218863  12.120631  1.25878  -1.673847  -8.614028  5.709849  4.248983  3.754059  -5.424717  15.873517  8.279614  0.579647  2.578833  -1.113788  8.383417  -9.344377  -0.738202  0.351648  0.095987  0.884304  0.964561  0.249469  2.418504  0.964561  0.249469  2.418505  -6.574842  9.474451  12.845915  134.777623  34.337393  170.542918  -19.142853  12.146648  20.08076  88.07188  -23.228419  -24.546506  7.325435  -10.366032  9.26824  45.947004  42.121537  -5.014263  -26.575003  20.818467  -41.108422  116.169043  -14.33361  19.112773  -1.856027  -0.052759  -0.929276  -1.392104  -0.036747  -0.697124  
7.215766  92.948822  -3.053178  14.89608  83.356891  -80.203325  12.234145  -13.17811  12.156417  1.285041  -1.705143  -8.61795  5.794311  4.305356  3.764319  -5.371803  15.853958  8.367618  0.492257  2.612335  -1.220208  8.420137  -9.278517  -0.744589  0.349982  0.098246  0.893019  0.960122  0.255576  2.442351  0.960122  0.255576  2.442351  -6.583369  9.468387  12.811663  134.778725  34.374988  170.563246  -19.123551  12.167414  20.064102  88.05805  -23.20815  -24.51622  7.352676  -10.359935  9.224426  45.898669  42.122733  -5.014933  -26.673392  20.825994  -41.164122  116.298791  -14.329074  19.178795  -1.866674  -0.058832  -0.935542  -1.400099  -0.041267  -0.701843  
7.215645  92.929619  -3.077554  14.943093  83.325071  -80.164659  12.163727  -13.133361  12.182326  1.430641  -1.748254  -8.595937  5.852265  4.39066  3.768159  -5.354694  15.885806  8.417359  0.48293  2.607738  -1.321468  8.438978  -9.227638  -0.755467  0.354333  0.095723  0.898108  0.971939  0.248444  2.456241  0.971939  0.248444  2.45624  -6.594047  9.474609  12.776016  134.849119  34.372412  170.641596  -19.029084  12.149877  20.054736  88.047499  -23.104854  -24.682075  7.331679  -10.315241  9.185563  45.917557  42.11089  -4.963024  -26.781168  20.825663  -41.242635  116.407376  -14.33955  19.229916  -1.832108  -0.011507  -0.938159  -1.374102  -0.005818  -0.703661  
7.212358  92.924736  -3.055269  15.083773  83.31938  -80.045713  12.121333  -13.103775  12.208882  1.430111  -1.781759  -8.594009  5.928273  4.465568  3.761673  -5.300911  15.863897  8.506283  0.387491  2.640105  -1.426874  8.466188  -9.166554  -0.756217  0.355224  0.09935  0.901401  0.974523  0.258275  2.465298  0.974523  0.258275  2.465298  -6.622747  9.449003  12.771745  134.84077  34.389897  170.658898  -19.012106  12.174617  20.048509  88.036586  -23.076113  -24.654138  7.330747  -10.321146  9.16894  45.852548  42.117537  -4.954442  -26.809303  20.822014  -41.30594  116.487495  -14.360574  19.261592  -1.851124  -0.021859  -0.918521  -1.38838  -0.013613  -0.688965  
7.215366  92.923035  -3.07764  15.144435  83.296615  -79.979971  12.082312  -13.070189  12.21318  1.549944  -1.809679  -8.566332  5.933729  4.564385  3.75487  -5.290353  15.888548  8.545083  0.367834  2.638302  -1.527559  8.468772  -9.111367  -0.749586  0.360149  0.097959  0.900029  0.987923  0.25431  2.461546  0.987923  0.25431  2.461547  -6.632737  9.436021  12.763484  134.891942  34.371283  170.730111  -18.922041  12.17331  20.051478  88.03143  -23.048597  -24.618307  7.292625  -10.280419  9.151306  45.823721  42.116652  -4.90872  -26.820595  20.795609  -41.388346  116.543356  -14.382454  19.275096  -1.825018  0.027794  -0.898418  -1.368726  0.023529  -0.673738  
